<svg xmlns="http://www.w3.org/2000/svg" width="11.006" height="21" viewBox="0 0 11.006 21">
  <path id="Path_Copy_2" data-name="Path Copy 2" d="M10.591,0,7.952,0C4.986,0,3.069,2.028,3.069,5.168V7.551H.415A.422.422,0,0,0,0,7.979v3.452a.422.422,0,0,0,.415.428H3.069v8.712A.422.422,0,0,0,3.484,21H6.947a.422.422,0,0,0,.415-.428V11.86h3.1a.422.422,0,0,0,.415-.428V7.979a.436.436,0,0,0-.122-.3.409.409,0,0,0-.294-.126h-3.1V5.531c0-.971.224-1.464,1.45-1.464h1.778a.422.422,0,0,0,.415-.428V.433A.422.422,0,0,0,10.591,0Z" transform="translate(0)" fill="#e6e7e8"/>
</svg>
