<svg xmlns="http://www.w3.org/2000/svg" width="23.012" height="19" viewBox="0 0 23.012 19">
  <path id="XMLID_827__Copy_2" data-name="XMLID_827_ Copy 2" d="M22.49,2.193a8.676,8.676,0,0,1-1.113.409,4.972,4.972,0,0,0,1-1.776.376.376,0,0,0-.122-.407.369.369,0,0,0-.421-.029,8.716,8.716,0,0,1-2.589,1.032,4.934,4.934,0,0,0-8.4,3.561,5.124,5.124,0,0,0,.04.644A12.616,12.616,0,0,1,2.209.981a.37.37,0,0,0-.608.048,5.023,5.023,0,0,0,.507,5.734,4.167,4.167,0,0,1-.661-.3.368.368,0,0,0-.365,0A.375.375,0,0,0,.9,6.784c0,.022,0,.044,0,.067a5.008,5.008,0,0,0,2.418,4.284c-.126-.013-.251-.031-.376-.055a.369.369,0,0,0-.347.12.376.376,0,0,0-.076.362A4.954,4.954,0,0,0,6.133,14.9a8.685,8.685,0,0,1-4.672,1.345,8.863,8.863,0,0,1-1.046-.062.371.371,0,0,0-.393.245.376.376,0,0,0,.149.441A13.241,13.241,0,0,0,7.375,19a12.773,12.773,0,0,0,9.93-4.4,14.008,14.008,0,0,0,3.441-9.086c0-.137,0-.275-.006-.412a9.651,9.651,0,0,0,2.21-2.361.377.377,0,0,0-.024-.449A.369.369,0,0,0,22.49,2.193Z" fill="#e6e7e8"/>
</svg>
